PathFileType	4	(X/Y/Z)	C:/Users/opensim2020/Desktop/walking_exp_matlab/subject06_walking15_straight_03.trc	
DataRate	CameraRate	NumFrames	NumMarkers	Units	OrigDataRate	OrigDataStartFrame	OrigNumFrames	
100.00	100.00	8	47	mm	100.00	2137	193	
Frame#	Time	LFHD			RFHD			LBHD			RBHD			C7			T10			CLAV			STRN			RBAK			LSHO			LUPA			LELB			LFRM			LWRA			LWRB			LFIN			RSHO			RUPA			RELB			RFRM			RWRA			RWRB			RFIN			LASI			RASI			LPSI			RPSI			LTHI			LKNE			LTIB			LANK			LHEE			LTOE			RTHI			RKNE			RTIB			RANK			RHEE			RTOE			*39			*40			*41			*42			*43			*44			*45			*46			
		X1	Y1	Z1	X2	Y2	Z2	X3	Y3	Z3	X4	Y4	Z4	X5	Y5	Z5	X6	Y6	Z6	X7	Y7	Z7	X8	Y8	Z8	X9	Y9	Z9	X10	Y10	Z10	X11	Y11	Z11	X12	Y12	Z12	X13	Y13	Z13	X14	Y14	Z14	X15	Y15	Z15	X16	Y16	Z16	X17	Y17	Z17	X18	Y18	Z18	X19	Y19	Z19	X20	Y20	Z20	X21	Y21	Z21	X22	Y22	Z22	X23	Y23	Z23	X24	Y24	Z24	X25	Y25	Z25	X26	Y26	Z26	X27	Y27	Z27	X28	Y28	Z28	X29	Y29	Z29	X30	Y30	Z30	X31	Y31	Z31	X32	Y32	Z32	X33	Y33	Z33	X34	Y34	Z34	X35	Y35	Z35	X36	Y36	Z36	X37	Y37	Z37	X38	Y38	Z38	X39	Y39	Z39	X40	Y40	Z40	X41	Y41	Z41	X42	Y42	Z42	X43	Y43	Z43	X44	Y44	Z44	X45	Y45	Z45	X46	Y46	Z46	X47	Y47	Z47	

1	0.000	1346.43481	-1014.19000	1639.61621	1477.59985	-996.85669	1635.57349	1366.01294	-1147.46179	1589.06323	1494.02734	-1128.80469	1589.89563	1427.35620	-1148.57825	1442.50952	1447.45459	-1225.19031	1121.64966	1420.59180	-1047.60864	1352.25732	1422.08264	-1032.94177	1174.17224	1521.13513	-1235.41443	1288.81958	1262.88037	-1114.31531	1387.12170	1201.56604	-1196.56897	1203.46375	1197.29810	-1248.85083	1103.32959	1177.80334	-1291.34424	958.39502	1214.75208	-1278.27002	828.25549	1185.28589	-1340.61792	849.68024	1183.39136	-1336.84167	758.23828	1583.19995	-1073.63647	1394.72009	1685.19727	-1115.98511	1204.78162	1703.45593	-1108.68164	1084.27966	1713.70288	-1069.83838	970.78607	1665.73816	-986.43689	851.26147	1713.76160	-1032.52771	839.74658	1706.63892	-978.96484	774.76233	1334.84924	-1061.07666	950.61560	1554.28943	-1062.81458	948.81854	1358.32190	-1218.78149	983.04877	1526.92993	-1212.27856	986.84387	1262.72742	-1083.68896	641.45947	1295.46008	-1034.79309	487.24609	1300.81616	-984.54169	240.76300	1339.37268	-918.24713	79.37538	1386.55164	-950.33008	54.61602	1346.81482	-770.08771	89.50493	1605.11450	-1181.26709	626.17914	1588.09302	-1212.92407	502.98331	1591.57422	-1351.90515	270.81171	1550.37683	-1432.13452	99.42519	1509.01843	-1479.75562	86.43034	1540.25623	-1291.13416	34.97678	1415.62659	-1104.72266	1683.93970																					 
2	0.010	1346.02002	-1006.99377	1639.27710	1477.17407	-989.64258	1635.08740	1365.47034	-1140.24512	1588.73584	1493.69617	-1121.83667	1589.56519	1426.78748	-1141.43396	1441.95557	1446.79224	-1217.13794	1120.91235	1419.98706	-1040.34705	1351.95032	1421.53601	-1025.12988	1173.96838	1520.60193	-1228.00366	1288.14136	1262.31812	-1107.07153	1386.67981	1201.22607	-1189.60803	1203.16064	1197.39087	-1242.46338	1103.11694	1178.42883	-1284.71094	957.95837	1216.05225	-1271.86780	827.98828	1186.26343	-1334.00671	849.42828	1185.08313	-1330.48853	757.84900	1582.57764	-1066.41296	1394.29980	1684.54932	-1108.12341	1204.22620	1702.82983	-1100.74536	1083.76428	1713.05591	-1062.29517	970.19348	1664.89014	-978.97034	850.39551	1713.27454	-1025.39905	839.03656	1706.19922	-971.93097	773.88965	1334.21045	-1052.40796	950.39984	1553.44739	-1054.92834	948.27710	1357.36633	-1209.96313	982.55475	1525.95032	-1203.85815	986.11359	1262.75195	-1075.69214	640.98779	1295.37305	-1027.53711	486.74323	1300.99280	-978.39551	239.25677	1339.63293	-913.11926	77.85710	1387.05750	-945.11646	53.23212	1346.42175	-764.99707	87.25806	1604.83997	-1173.38306	626.04779	1588.04468	-1205.35718	502.91266	1591.90393	-1347.58557	272.38879	1551.15393	-1430.49219	102.21748	1510.00000	-1478.31824	90.10894	1540.36292	-1291.06201	34.99943	1415.20544	-1097.48743	1683.62048																					 
3	0.020	1345.62781	-999.46429	1638.77527	1476.71863	-982.51813	1634.76184	1364.80066	-1133.02222	1588.54517	1493.05554	-1114.72058	1589.24683	1426.10889	-1134.29272	1441.52100	1446.04773	-1208.98865	1120.21338	1419.56201	-1033.42017	1351.29272	1420.91724	-1017.16034	1173.90369	1519.88672	-1220.49341	1287.44836	1261.65405	-1099.74927	1386.36865	1200.44409	-1182.56604	1202.83923	1197.35901	-1235.37244	1102.68127	1178.85681	-1277.97913	957.66260	1217.05029	-1264.82043	827.63916	1187.08240	-1326.84167	849.02795	1186.58276	-1323.51367	757.31464	1581.85291	-1059.20837	1394.06604	1683.68140	-1100.65588	1203.86511	1701.78186	-1093.28723	1083.37341	1712.28857	-1054.93701	969.66223	1664.25476	-972.22809	849.50812	1712.75415	-1018.41003	838.33997	1705.84033	-965.22223	773.12592	1333.54041	-1043.21436	950.34747	1552.95825	-1045.74353	948.28265	1356.45679	-1200.74719	982.17218	1524.91504	-1195.29932	985.46527	1262.94580	-1067.18494	640.71704	1295.07751	-1020.10809	486.22842	1301.34241	-973.56134	238.07883	1340.12122	-909.85596	75.71645	1387.83704	-942.00854	51.60810	1345.85034	-761.86609	83.87558	1604.50085	-1165.11670	625.81268	1587.72058	-1197.31470	502.66486	1592.03308	-1342.82324	274.06891	1551.91943	-1428.61145	105.20525	1510.84863	-1476.71887	94.03691	1540.33105	-1290.88818	34.95994	1414.67273	-1090.24182	1683.34094																					 
4	0.030	1345.06299	-991.96790	1638.52515	1476.22595	-975.34125	1634.46228	1364.00635	-1125.71326	1588.41467	1492.12988	-1107.43164	1588.95764	1425.27161	-1126.96509	1441.04993	1445.22888	-1200.61621	1119.51611	1418.75256	-1025.85388	1351.15540	1420.14380	-1008.96735	1173.88647	1519.06506	-1212.83167	1286.73376	1260.88977	-1092.28650	1385.97375	1199.78088	-1174.89758	1202.40991	1197.24707	-1227.02930	1102.06226	1179.35510	-1270.27673	957.17151	1218.04077	-1257.14099	827.14624	1187.79199	-1319.28552	848.36157	1187.84680	-1315.86633	756.67676	1581.08813	-1051.91809	1393.85339	1682.83508	-1093.06458	1203.66504	1700.88928	-1085.43774	1083.02466	1711.48584	-1047.68567	969.20990	1663.76904	-965.22119	848.67804	1712.23315	-1011.71295	837.76984	1705.35486	-958.72137	772.27838	1332.73108	-1033.86719	950.25745	1552.41992	-1036.33301	948.37488	1355.43945	-1191.47961	981.77594	1523.85144	-1186.44092	984.78143	1263.19678	-1058.33948	640.68341	1294.53601	-1012.45557	485.59326	1301.39734	-969.40289	236.14862	1340.85913	-908.46344	73.17416	1388.89014	-940.72546	49.67122	1345.31482	-760.64459	79.39591	1604.13965	-1156.54810	625.60199	1587.33691	-1188.69006	502.35074	1592.17273	-1337.69751	275.86392	1552.66919	-1426.45630	108.33891	1511.71326	-1474.82996	98.23830	1540.35291	-1290.72168	35.02769	1413.99194	-1082.91357	1683.11584																					 
5	0.040	1344.44348	-984.46295	1638.41284	1475.57520	-968.02356	1634.17749	1363.12085	-1118.22021	1588.29004	1491.44165	-1100.38367	1588.78638	1424.31726	-1119.55444	1440.64722	1444.23755	-1191.99817	1118.79175	1417.95862	-1017.99670	1351.12280	1419.27075	-1000.74200	1173.93103	1518.12659	-1205.02588	1286.02490	1259.95117	-1084.63464	1385.60632	1198.92383	-1166.89160	1201.89880	1196.71814	-1219.03174	1101.35706	1179.36243	-1261.37720	956.11499	1218.76331	-1248.80103	826.37994	1188.24060	-1310.77490	847.51233	1188.91101	-1307.48608	755.72375	1580.13794	-1044.53674	1393.72131	1681.90015	-1085.42639	1203.48950	1699.86719	-1078.05762	1082.82324	1710.73145	-1039.68945	968.86566	1663.26257	-958.56042	847.85864	1711.67749	-1005.07202	837.17719	1704.98535	-952.34277	771.52148	1331.91760	-1024.26611	950.18396	1551.14648	-1028.12354	947.93457	1354.44678	-1181.77563	981.29034	1522.76575	-1177.27295	983.97510	1263.42212	-1049.13123	640.62646	1293.59058	-1004.82581	484.91388	1301.66821	-965.78235	234.18953	1341.63989	-908.35364	70.29834	1389.76770	-940.84705	47.17842	1344.99402	-760.76971	73.98265	1603.81714	-1147.47241	625.29559	1586.59351	-1179.24255	501.81097	1592.17175	-1332.07324	277.65308	1553.39392	-1423.97034	111.69668	1512.25562	-1472.60010	102.46570	1540.30298	-1290.40015	34.99841	1413.26868	-1075.55310	1682.96484																					 
6	0.050	1343.71545	-976.93622	1638.38245	1474.88745	-960.76227	1633.98877	1362.07275	-1110.68811	1588.23999	1490.21008	-1092.94775	1588.53162	1423.15051	-1112.09619	1440.28735	1443.09680	-1183.18323	1118.11108	1416.95032	-1010.26849	1351.06616	1418.34827	-992.23016	1174.04089	1517.00928	-1197.10754	1285.36548	1258.85535	-1076.81763	1385.22559	1197.87390	-1158.62097	1201.28564	1196.07446	-1210.21863	1100.45276	1179.18176	-1252.74512	955.16370	1219.13904	-1239.79163	825.50708	1188.42261	-1301.71216	846.44171	1189.69653	-1298.46509	754.67206	1579.13306	-1037.11523	1393.68042	1680.93298	-1077.78308	1203.38086	1698.74695	-1070.55945	1082.66528	1709.74829	-1032.71301	968.52173	1662.71606	-952.02502	847.05487	1711.05884	-998.68890	836.64471	1704.55566	-946.25391	770.71942	1331.09290	-1014.11523	950.26221	1550.32861	-1018.81238	947.88654	1353.34875	-1171.88330	980.85602	1521.59351	-1167.95093	983.23981	1263.64392	-1039.69482	640.42255	1293.26526	-997.14752	484.13525	1302.35632	-962.46973	232.40041	1342.87512	-908.48517	67.69109	1390.86938	-940.81213	45.66245	1344.75977	-760.97253	67.68029	1603.37585	-1138.13196	625.06659	1586.22925	-1170.09717	501.57190	1592.04285	-1326.19177	279.59732	1554.01294	-1421.24573	115.25728	1513.09412	-1470.25012	107.48663	1540.20935	-1290.11609	35.11740	1412.38794	-1068.14624	1682.84326																					 
7	0.060	1342.91711	-969.26257	1638.54016	1474.16333	-953.44659	1633.97815	1360.83569	-1103.12451	1588.25537	1489.06482	-1085.69958	1588.36975	1421.82996	-1104.56580	1440.14819	1441.82043	-1174.11377	1117.40771	1415.80896	-1002.43921	1351.17346	1417.44531	-983.45734	1174.29041	1515.64917	-1189.23621	1284.71558	1257.62146	-1068.84741	1384.90930	1196.80872	-1149.64551	1200.44763	1195.33301	-1200.98865	1099.41956	1178.84753	-1242.68311	953.73474	1219.44434	-1230.11084	824.51324	1188.30444	-1291.97620	845.23407	1190.21936	-1288.67493	753.37653	1578.02563	-1029.65320	1393.71948	1679.79736	-1070.41064	1203.41748	1697.74072	-1062.85742	1082.47351	1708.79736	-1026.51746	968.31061	1662.20178	-945.61633	846.28833	1710.44495	-992.59650	836.18311	1704.19568	-940.33685	770.04431	1330.19470	-1003.99011	950.38940	1550.09985	-1007.89032	948.17554	1351.91980	-1161.93896	980.53442	1520.40601	-1158.44519	982.56317	1263.46240	-1030.24426	640.47229	1292.99915	-990.09314	483.62897	1303.36133	-959.30542	231.23544	1343.59009	-906.22961	67.61653	1392.20996	-938.38293	47.64435	1343.95886	-758.27521	60.60358	1602.82043	-1128.48938	624.86505	1585.80249	-1160.70703	501.40198	1592.02100	-1320.16711	281.73187	1554.71606	-1418.23193	119.08691	1513.66260	-1466.88123	111.86994	1540.07898	-1289.79492	35.20404	1411.42224	-1060.69067	1682.82275																					 
8	0.070	1342.09631	-961.49384	1639.13354	1473.25330	-946.04315	1634.29602	1359.45117	-1095.32300	1588.48853	1487.91589	-1078.41895	1588.37549	1420.39258	-1096.76282	1440.28674	1440.83826	-1164.89795	1116.93848	1414.73767	-994.38849	1351.60632	1416.49854	-974.82770	1174.76294	1513.95264	-1181.19531	1284.29407	1256.17004	-1060.63550	1384.62659	1195.57581	-1140.28662	1199.52905	1194.33362	-1191.32715	1098.26099	1178.29529	-1232.43262	952.43933	1219.48901	-1219.72620	823.33331	1187.87146	-1281.38635	843.76941	1190.43433	-1278.12329	751.91833	1576.92102	-1022.09747	1393.98950	1678.66748	-1062.65942	1203.41516	1696.59607	-1055.24500	1082.48767	1707.92432	-1018.99139	968.14050	1661.72791	-939.33966	845.51434	1709.80908	-986.47052	835.68555	1703.75061	-934.83862	769.35437	1329.19397	-993.85754	950.63873	1548.77002	-998.82556	948.03119	1350.57434	-1151.42676	980.13971	1519.18677	-1148.53052	982.00562	1263.08008	-1021.05957	640.97449	1292.07495	-984.93182	483.23453	1302.94006	-954.64752	231.48189	1342.53198	-901.58643	68.17770	1391.35852	-935.04205	49.97407	1343.68457	-754.26447	54.89885	1601.92737	-1118.22546	624.54535	1585.28613	-1151.07935	501.41235	1591.88623	-1313.79187	284.11414	1555.50269	-1414.70251	123.22011	1514.59863	-1463.40247	117.28895	1539.91785	-1289.34546	35.29925	1410.38733	-1053.27966	1683.05750																					 
